<svg width="78" height="24" viewBox="0 0 78 24" fill="#0a0a0a" xmlns="http://www.w3.org/2000/svg"><g clip-path="url(#clip0_1_362)"><path d="M15.4826 23.5476H10.0227L4.83588 16.4342V23.5476H0V0.967163H4.83588V14.4842L9.67956 7.4176H15.3266L9.45336 15.4826L15.4826 23.5476Z" fill="#0a0a0a"></path><path d="M27.0731 7.41762H31.909V23.5476H27.0731V22.0345C26.468 22.6999 25.7219 23.2217 24.8893 23.5617C24.0567 23.9018 23.1586 24.0515 22.2606 24C21.2263 24.0099 20.2021 23.7946 19.2593 23.3689C18.3164 22.9433 17.4775 22.3176 16.8008 21.5353C15.2869 19.8896 14.4753 17.7178 14.5388 15.4826C14.4773 13.2501 15.2888 11.0815 16.8008 9.43777C17.4761 8.65318 18.3146 8.02544 19.2576 7.59839C20.2006 7.17133 21.2255 6.95525 22.2606 6.96523C23.1593 6.91354 24.0581 7.06397 24.891 7.40548C25.7238 7.74698 26.4695 8.27087 27.0731 8.93858V7.41762ZM20.4589 18.3373C20.8247 18.695 21.2596 18.9743 21.7371 19.158C22.2145 19.3417 22.7244 19.4261 23.2356 19.4059C23.7456 19.4259 24.2543 19.3415 24.7305 19.1577C25.2067 18.974 25.6402 18.6948 26.0046 18.3373C26.3672 17.9558 26.6488 17.5048 26.8324 17.0115C27.0161 16.5182 27.0979 15.9928 27.0731 15.467C27.0979 14.9412 27.0161 14.4159 26.8324 13.9226C26.6488 13.4293 26.3672 12.9783 26.0046 12.5967C25.6398 12.2403 25.206 11.9623 24.7298 11.7798C24.2536 11.5974 23.7451 11.5144 23.2356 11.5359C22.725 11.5147 22.2154 11.5978 21.738 11.7802C21.2605 11.9626 20.8253 12.2404 20.4589 12.5967C20.0977 12.9789 19.8175 13.4302 19.6352 13.9235C19.4529 14.4167 19.3723 14.9418 19.3981 15.467C19.3701 15.9948 19.4497 16.5228 19.6321 17.0189C19.8144 17.515 20.0957 17.9689 20.4589 18.3529V18.3373Z" fill="#0a0a0a"></path><path d="M33.9681 23.5476V0H38.804V23.5476H33.9681Z" fill="#0a0a0a"></path><path d="M45.5275 5.14788C45.2587 5.41697 44.9395 5.63045 44.5882 5.77609C44.2369 5.92174 43.8603 5.99671 43.48 5.99671C43.0997 5.99671 42.7231 5.92174 42.3718 5.77609C42.0205 5.63045 41.7013 5.41697 41.4326 5.14788C41.1575 4.88644 40.9382 4.57194 40.7881 4.22338C40.6379 3.87483 40.56 3.49945 40.559 3.11993C40.5538 2.73817 40.6265 2.35936 40.7727 2.00665C40.9189 1.65394 41.1354 1.33475 41.4092 1.06859C41.6779 0.799496 41.9971 0.586023 42.3484 0.440374C42.6997 0.294725 43.0763 0.219757 43.4566 0.219757C43.8369 0.219757 44.2135 0.294725 44.5648 0.440374C44.9161 0.586023 45.2353 0.799496 45.5041 1.06859C45.7831 1.33235 46.0052 1.6504 46.1568 2.00317C46.3083 2.35594 46.3861 2.73598 46.3854 3.11993C46.386 3.49826 46.3103 3.87283 46.1629 4.22126C46.0155 4.56969 45.7994 4.88483 45.5275 5.14788ZM41.066 23.5476V7.41763H45.9018V23.5476H41.066Z" fill="#0a0a0a"></path><path d="M50.8001 9.00096L53.1401 12.3393L55.2616 15.35L53.1401 18.3451L50.5895 21.9642H48.9516L52.9841 16.2626L53.6237 15.35L52.9841 14.4374L49.1466 8.97756H50.8001M51.6191 7.4176H46.0969L51.6893 15.35L45.9019 23.5476H51.4241L54.4504 19.2577L57.2116 15.3578L54.4504 11.4579L51.6191 7.4176Z" fill="#0a0a0a"></path><path d="M57.469 15.35L63.0614 7.4176H57.5392L54.7078 11.4345L54.3958 11.8791C54.5454 12.0007 54.6744 12.1456 54.778 12.3081C55.0354 12.7605 55.2371 13.2424 55.3786 13.7432C55.4492 14.0528 55.4833 14.3695 55.48 14.687C55.5991 15.0506 55.6086 15.4411 55.5074 15.81C55.4061 16.1789 55.1986 16.5099 54.9106 16.7618C54.9106 16.832 54.8404 16.9022 54.8092 16.9724C54.778 17.0426 54.661 17.3546 54.6064 17.5495C54.5072 17.8656 54.3239 18.1487 54.076 18.3685L54.7 19.2577L57.7186 23.5476H63.2564L57.469 15.35Z" fill="#0a0a0a"></path><path d="M75.5177 21.5353C73.8951 23.1166 71.719 24.0015 69.4534 24.0015C67.1877 24.0015 65.0116 23.1166 63.389 21.5353C62.5805 20.7516 61.9422 19.8097 61.5141 18.7683C61.086 17.7268 60.8773 16.6083 60.9009 15.4826C60.8774 14.3581 61.0863 13.2408 61.5144 12.2006C61.9425 11.1605 62.5807 10.2199 63.389 9.43777C64.5895 8.25195 66.113 7.44644 67.7689 7.12202C69.4248 6.79759 71.1396 6.96866 72.6988 7.61382C74.258 8.25897 75.5924 9.34957 76.5349 10.7492C77.4775 12.1488 77.9864 13.7953 77.9981 15.4826C78.0213 16.6076 77.8131 17.7253 77.3864 18.7665C76.9598 19.8077 76.3237 20.7501 75.5177 21.5353ZM66.8053 18.2281C67.5177 18.9081 68.4647 19.2874 69.4495 19.2874C70.4343 19.2874 71.3812 18.9081 72.0936 18.2281C72.4496 17.8676 72.7281 17.4381 72.9119 16.9659C73.0956 16.4937 73.1808 15.9889 73.1622 15.4826C73.1802 14.9775 73.0947 14.4741 72.911 14.0033C72.7272 13.5324 72.449 13.1042 72.0936 12.7449C71.384 12.0596 70.436 11.6766 69.4495 11.6766C68.4629 11.6766 67.515 12.0596 66.8053 12.7449C66.4513 13.1049 66.1746 13.5334 65.9922 14.0042C65.8098 14.475 65.7255 14.9781 65.7446 15.4826C65.7249 15.9884 65.8088 16.4928 65.9913 16.965C66.1737 17.4371 66.4507 17.867 66.8053 18.2281Z" fill="#0a0a0a"></path></g><defs><clipPath id="clip0_1_362"><rect width="77.998" height="24" fill="white"></rect></clipPath></defs></svg>
